<?xml version="1.0" encoding="UTF-8" standalone="no"?> <svg id="Layer_1" data-name="Layer 1" xmlns="http://www.w3.org/2000/svg" viewBox="0 0 128 128"><defs><style>.cls-1{fill:#2d3e50;}.cls-2{fill:#2e79bd;}</style></defs><title>b</title><path class="cls-1" d="M112.38947,15.74863a3.65124,3.65124,0,0,0-3.65125,3.65259l.033,91.07263a6.96352,6.96352,0,0,1-6.95709,6.96021H25.861a6.61359,6.61359,0,0,1-1.7713-12.9895,6.75274,6.75274,0,0,1,1.90564-.27179H93.798a9.29266,9.29266,0,0,0,9.29382-9.29071l.0094-84.491A7.09376,7.09376,0,0,0,96.00671,3.2933H19.30682A7.09619,7.09619,0,0,0,12.21228,10.391v97.78979a13.765,13.765,0,0,0,0,5.25452A13.92138,13.92138,0,0,0,25.861,124.7067h75.95319a14.24532,14.24532,0,0,0,14.09851-12.32727,13.71893,13.71893,0,0,0,.12811-1.90558v-91.074A3.65128,3.65128,0,0,0,112.38947,15.74863ZM32.40253,37.2822a2.07524,2.07524,0,0,1,2.07434-2.07434H80.09a2.07524,2.07524,0,0,1,2.07434,2.07434V70.45572A2.07319,2.07319,0,0,1,80.09,72.53H34.47687a2.07319,2.07319,0,0,1-2.07434-2.07428Z"/><path class="cls-2" d="M46.91681,51.04605H59.35626a1.32422,1.32422,0,0,0,0-2.64844H46.91681a1.32422,1.32422,0,0,0,0,2.64844Z"/><path class="cls-2" d="M46.91681,59.34048h20.7334a1.32446,1.32446,0,0,0,0-2.64893H46.91681a1.32446,1.32446,0,0,0,0,2.64893Z"/></svg>